<svg t="1645936845324" class="icon" viewBox="0 0 1024 1024" version="1.1" xmlns="http://www.w3.org/2000/svg" p-id="4668" width="200" height="200"><path d="M58.176 352.213333v312.917334c0 97.578667 77.824 179.456 179.818667 188.650666 181.568 16.405333 364.373333 16.405333 545.92 0 102.016-9.194667 179.818667-91.072 179.818666-188.650666V352.213333c0-97.578667-77.802667-179.456-179.797333-188.650666a3038.101333 3038.101333 0 0 0-545.941333 0c-101.994667 9.194667-179.818667 91.072-179.818667 188.650666" fill="#B3B7BC" p-id="4669"></path><path d="M910.229333 254.592c8.298667-8.96 8.448-23.04-0.085333-31.765333a201.386667 201.386667 0 0 0-126.229333-59.264c-181.546667-16.384-364.352-16.384-545.92 0-51.904 4.693333-97.450667 28.266667-129.728 63.146666-8.362667 9.002667-7.68 23.168 1.002666 31.872l257.984 257.984c69.013333 68.992 181.909333 71.872 260.544 6.250667 99.797333-83.264 194.154667-172.906667 282.432-268.224" fill="#CCCCCC" p-id="4670"></path></svg>