<svg t="1645936771236" class="icon" viewBox="0 0 1024 1024" version="1.1" xmlns="http://www.w3.org/2000/svg" p-id="3236" width="200" height="200"><path d="M965.41202963 169.99917037L836.16047408 40.86897778c-18.56853333-18.56853333-43.44794075-28.88438518-69.54097778-28.88438519-26.33576297 0-51.09380741 10.31585185-69.66234075 28.88438519L557.8752 179.95093333c-18.56853333 18.56853333-28.88438518 43.44794075-28.88438518 69.54097778 0 26.33576297 10.31585185 51.09380741 28.88438518 69.66234074l101.70216297 101.70216297c-23.9085037 52.67152592-56.79786667 100.00308148-97.69718519 140.9024-40.77795555 41.02068148-88.23087408 73.91004445-140.9024 98.06127407L319.27561482 558.11792592c-18.56853333-18.56853333-43.44794075-28.88438518-69.54097779-28.88438517-26.33576297 0-51.09380741 10.31585185-69.66234073 28.88438517L40.86897778 697.07851852c-18.56853333 18.56853333-28.88438518 43.44794075-28.88438519 69.66234073 0 26.33576297 10.31585185 51.09380741 28.88438519 69.66234075l129.00882963 129.00882963c29.61256297 29.73392592 70.51188148 46.60337778 112.50346667 46.60337778 8.8594963 0 17.3549037-0.72817778 25.72894814-2.18453333 163.59727408-26.94257778 325.85955555-113.95982222 456.8101926-244.7890963C895.74968889 634.33386667 982.64557037 472.19294815 1009.95223703 308.11022222c8.25268148-50.1229037-8.37404445-101.70216297-44.5402074-138.11105185z" fill="#333303" p-id="3237"></path></svg>